<svg width="550" height="550" viewBox="0 0 550 550" fill="none" xmlns="http://www.w3.org/2000/svg">
<path d="M143.135 550C179.798 501.708 173.595 480.663 181.43 425.598C187.936 379.927 226.377 345.665 272.327 344.573C318.302 343.481 358.315 375.922 366.924 421.241C371.096 443.124 368.98 465.322 373.2 487.217C377.396 509.22 384.204 529.804 393.914 550H412.5C393.817 514.306 385.196 479.255 385.196 438.936C385.196 377.597 335.642 327.885 274.54 327.885C213.438 327.885 163.885 377.609 163.885 438.936C163.885 483.612 151.285 516.697 121.635 550H143.135Z" fill="black"/>
<path d="M274.989 0C335.744 0.000178263 384.993 49.2389 384.993 109.993C384.993 170.747 335.743 219.997 274.989 219.997C214.235 219.997 164.985 170.735 164.984 109.993C164.984 49.2508 214.235 0 274.989 0ZM274.993 16.4941C223.351 16.4944 181.506 58.3631 181.506 109.993C181.506 161.623 223.363 203.506 274.993 203.506C326.636 203.506 368.493 161.636 368.493 109.993C368.493 58.351 326.635 16.4941 274.993 16.4941Z" fill="black"/>
<path d="M549.999 265.599L0 265.599L0 282.052L549.999 282.052V265.599Z" fill="black"/>
</svg>
